HIERARCHY
ROOT Hips
{
 OFFSET 0.000000 0.000000 0.000000
 CHANNELS 6 Xposition Yposition Zposition Yrotation Xrotation Zrotation
 JOINT Chest
 {
  OFFSET 0.000000 9.585900 0.002600
  CHANNELS 3 Yrotation Xrotation Zrotation
  JOINT Chest2
  {
   OFFSET 0.000000 9.601200 -0.005300
   CHANNELS 3 Yrotation Xrotation Zrotation
   JOINT Chest3
   {
    OFFSET 0.000000 9.561800 0.000000
    CHANNELS 3 Yrotation Xrotation Zrotation
    JOINT Chest4
    {
     OFFSET 0.000000 9.552100 0.000000
     CHANNELS 3 Yrotation Xrotation Zrotation
     JOINT Neck
     {
      OFFSET 0.000000 14.453000 0.000000
      CHANNELS 3 Yrotation Xrotation Zrotation
      JOINT Head
      {
       OFFSET 0.000000 8.936500 -0.011300
       CHANNELS 3 Yrotation Xrotation Zrotation
       End Site
       {
        OFFSET 0.000000 17.073600 -0.006000
       }
      }
     }
     JOINT RightCollar
     {
      OFFSET -2.921100 9.558500 0.000000
      CHANNELS 3 Yrotation Xrotation Zrotation
      JOINT RightShoulder
      {
       OFFSET -13.519700 0.000000 0.000000
       CHANNELS 3 Yrotation Xrotation Zrotation
       JOINT RightElbow
       {
        OFFSET 0.000000 -29.696600 0.000000
        CHANNELS 3 Yrotation Xrotation Zrotation
        JOINT RightWrist
        {
         OFFSET 0.000000 -24.004700 0.000000
         CHANNELS 3 Yrotation Xrotation Zrotation
         End Site
         {
          OFFSET 0.000000 -17.728500 0.000000
         }
        }
       }
      }
     }
     JOINT LeftCollar
     {
      OFFSET 2.921100 9.558500 0.000000
      CHANNELS 3 Yrotation Xrotation Zrotation
      JOINT LeftShoulder
      {
       OFFSET 13.519700 0.000000 0.000000
       CHANNELS 3 Yrotation Xrotation Zrotation
       JOINT LeftElbow
       {
        OFFSET 0.000000 -29.696600 0.000000
        CHANNELS 3 Yrotation Xrotation Zrotation
        JOINT LeftWrist
        {
         OFFSET 0.000000 -24.004700 0.000000
         CHANNELS 3 Yrotation Xrotation Zrotation
         End Site
         {
          OFFSET 0.000000 -17.728500 0.000000
         }
        }
       }
      }
     }
    }
   }
  }
 }
 JOINT RightHip
 {
  OFFSET -7.771700 -0.012900 -0.001300
  CHANNELS 3 Yrotation Xrotation Zrotation
  JOINT RightKnee
  {
   OFFSET 0.000000 -40.869800 0.001200
   CHANNELS 3 Yrotation Xrotation Zrotation
   JOINT RightAnkle
   {
    OFFSET 0.000000 -39.717900 0.002100
    CHANNELS 3 Yrotation Xrotation Zrotation
    JOINT RightToe
    {
     OFFSET 0.000000 -4.965400 11.033500
     CHANNELS 3 Yrotation Xrotation Zrotation
     End Site
     {
      OFFSET 0.000000 -1.423100 5.872300
     }
    }
   }
  }
 }
 JOINT LeftHip
 {
  OFFSET 7.771700 -0.012900 -0.001300
  CHANNELS 3 Yrotation Xrotation Zrotation
  JOINT LeftKnee
  {
   OFFSET 0.000000 -40.869800 0.001200
   CHANNELS 3 Yrotation Xrotation Zrotation
   JOINT LeftAnkle
   {
    OFFSET 0.000000 -39.717900 0.002100
    CHANNELS 3 Yrotation Xrotation Zrotation
    JOINT LeftToe
    {
     OFFSET 0.000000 -4.965400 11.033500
     CHANNELS 3 Yrotation Xrotation Zrotation
     End Site
     {
      OFFSET 0.000000 -1.423100 5.872300
     }
    }
   }
  }
 }
}
MOTION
Frames: 16
Frame Time: 0.008333
0.000000 85.388000 0.000000 0.000000 -5.767877 0.000000 0.000000 11.653817 0.000000 0.000000 -5.885947 0.000000 0.000000 -0.000000 0.000000 0.000000 -0.000000 0.000000 0.000000 12.528835 0.000000 0.000000 0.711642 0.000000 0.000000 -0.000000 0.000000 0.000000 0.000000 -90.000000 0.000000 -2.309062 0.000000 0.000000 2.309062 0.000000 0.000000 -0.000000 0.000000 0.000000 -0.000000 90.000000 0.000000 -2.309062 0.000000 0.000000 2.309062 0.000000 0.000000 8.520406 0.000000 0.000000 1.905762 0.000000 -0.000000 -4.658285 0.000000 0.000000 -0.000000 0.000000 0.000000 8.520406 0.000000 0.000000 1.905762 0.000000 -0.000000 -4.658285 0.000000 0.000000 -0.000000 0.000000
-31.136714 57.442945 95.049799 176.786963 -48.614618 -1.303503 -0.697658 27.691019 3.111936 -0.187809 5.016587 0.466371 -0.301183 7.898584 0.747412 -0.589054 22.631104 2.095060 0.126036 12.107225 -3.893970 1.870068 -13.200572 -7.511654 4.339773 2.019117 -2.397825 18.317969 -29.158654 -19.462783 51.507475 -64.229858 -24.703391 10.815142 7.239119 -24.518157 -11.195553 -2.178730 -4.635700 -3.932526 -31.069142 -1.610014 -61.058208 -48.475042 35.517519 -27.285400 0.209155 12.731148 7.657684 -23.911294 -1.133176 0.558279 76.206956 6.635189 3.777450 -3.405798 1.134065 -0.016802 0.110797 -0.001812 -9.733396 -26.665220 -3.221666 42.582403 72.897652 39.430022 -25.312891 -3.863128 -4.044754 -0.162865 -0.668150 -0.091981
-31.134633 57.442796 95.050336 176.786497 -48.608363 -1.313100 -0.696110 27.684282 3.123795 -0.199616 5.011779 0.474821 -0.296388 7.899601 0.742483 -0.609636 22.618131 2.115647 0.136358 12.123997 -3.939473 1.875358 -13.193244 -7.625524 4.348336 2.047691 -2.414099 18.308089 -29.166443 -19.438050 51.579743 -64.227665 -24.796132 10.805457 7.249991 -24.512509 -11.190403 -2.148893 -4.639425 -3.913595 -31.084727 -1.633190 -61.045989 -48.474204 35.516031 -27.291533 0.189912 12.723877 7.645512 -23.918406 -1.118626 0.546344 76.205037 6.617489 3.779843 -3.403639 1.133066 -0.017931 0.111399 -0.002659 -9.745617 -26.670423 -3.205544 42.591961 72.897649 39.436165 -25.305970 -3.864983 -4.053393 -0.149087 -0.665154 -0.084693
-31.133519 57.442951 95.050709 176.785260 -48.603706 -1.317800 -0.708256 27.676135 3.134202 -0.202230 5.009300 0.475671 -0.300388 7.895716 0.743770 -0.610103 22.622180 2.108762 0.125831 12.121113 -3.977736 1.891531 -13.184350 -7.727553 4.352854 2.058854 -2.422260 18.298853 -29.169886 -19.421775 51.609338 -64.237547 -24.862615 10.797526 7.256206 -24.504278 -11.193650 -2.132818 -4.636566 -3.906904 -31.088950 -1.635115 -61.035740 -48.479155 35.513774 -27.288252 0.189690 12.720307 7.640302 -23.923556 -1.111372 0.536443 76.204402 6.605886 3.780056 -3.401533 1.134411 -0.016703 0.111084 -0.005454 -9.754013 -26.673678 -3.195978 42.597064 72.896281 39.437957 -25.298273 -3.865413 -4.061130 -0.161300 -0.662554 -0.078151
-31.132544 57.443936 95.050514 176.783819 -48.605266 -1.324178 -0.728804 27.670661 3.150218 -0.195509 5.011649 0.468416 -0.304717 7.893470 0.746429 -0.611743 22.624658 2.102031 0.099885 12.106537 -4.033896 1.922236 -13.170581 -7.818182 4.343371 2.077026 -2.406438 18.318337 -29.172575 -19.437501 51.640943 -64.242106 -24.919403 10.797536 7.260075 -24.486883 -11.197528 -2.118606 -4.634343 -3.894291 -31.093504 -1.640438 -61.028584 -48.484649 35.509156 -27.283106 0.180450 12.716471 7.634613 -23.920384 -1.101936 0.544880 76.201116 6.613295 3.775229 -3.403316 1.136797 -0.014757 0.115007 -0.008306 -9.759749 -26.670648 -3.186014 42.611509 72.893861 39.453161 -25.319503 -3.868807 -4.061235 -0.166449 -0.661137 -0.079341
-31.133690 57.444689 95.050543 176.788085 -48.604804 -1.326364 -0.736035 27.669164 3.150293 -0.208076 5.006181 0.479333 -0.322210 7.888132 0.757799 -0.648691 22.615891 2.126351 0.115197 12.118204 -4.132543 1.948031 -13.168314 -7.931205 4.372717 2.121064 -2.456549 18.314264 -29.184577 -19.422062 51.723372 -64.225091 -24.986534 10.787964 7.260087 -24.491927 -11.157915 -2.099603 -4.695973 -3.895366 -31.088334 -1.634235 -61.018337 -48.504298 35.519158 -27.275768 0.184991 12.709072 7.629364 -23.919089 -1.107371 0.577301 76.199738 6.645941 3.776689 -3.402169 1.139266 -0.016573 0.114177 -0.012217 -9.765217 -26.671044 -3.186216 42.602839 72.893859 39.442255 -25.327181 -3.866183 -4.058902 -0.166999 -0.661622 -0.080912
-31.136306 57.445597 95.050446 176.782205 -48.606228 -1.317072 -0.757076 27.667740 3.145069 -0.234528 5.000750 0.495523 -0.293993 7.894331 0.735193 -0.669927 22.612406 2.145544 0.124169 12.120315 -4.183845 1.971552 -13.174856 -8.055250 4.340584 2.166856 -2.425237 18.376230 -29.201088 -19.468175 51.808380 -64.230824 -25.086752 10.780947 7.262564 -24.461602 -11.146065 -2.086339 -4.717035 -3.902706 -31.075735 -1.619208 -61.006659 -48.533628 35.538903 -27.274464 0.178264 12.704134 7.636930 -23.916728 -1.118882 0.580102 76.200714 6.653217 3.781552 -3.401927 1.138926 -0.018798 0.114085 -0.012095 -9.763437 -26.667149 -3.190117 42.561554 72.897963 39.393220 -25.316099 -3.865337 -4.053115 -0.165816 -0.658564 -0.082398
-31.138385 57.447061 95.050045 176.765889 -48.612333 -1.308144 -0.770020 27.670320 3.149991 -0.233786 5.002527 0.496074 -0.319108 7.889922 0.752771 -0.668480 22.617006 2.133036 0.129873 12.117955 -4.232856 1.998093 -13.184594 -8.182870 4.339349 2.192030 -2.429006 18.377305 -29.210159 -19.464818 51.915185 -64.273459 -25.252490 10.795822 7.295405 -24.380809 -11.143332 -2.075587 -4.732716 -3.882523 -31.081002 -1.629420 -60.996908 -48.529377 35.519174 -27.256253 0.178766 12.730744 7.649918 -23.910264 -1.122319 0.574502 76.199506 6.656191 3.786420 -3.399125 1.137790 -0.019689 0.113222 -0.012782 -9.756918 -26.658306 -3.189868 42.540309 72.903170 39.367140 -25.296728 -3.865080 -4.045864 -0.191498 -0.657830 -0.085478
-31.143890 57.447700 95.050155 176.763231 -48.612369 -1.293617 -0.793964 27.668095 3.137942 -0.227718 5.004567 0.491739 -0.331712 7.889896 0.763126 -0.679860 22.619205 2.137718 0.133342 12.108831 -4.289646 2.026870 -13.194143 -8.304721 4.342057 2.213842 -2.431618 18.368030 -29.223035 -19.467515 51.994879 -64.287890 -25.327202 10.760976 7.297655 -24.394282 -11.143386 -2.067264 -4.743442 -3.860104 -31.087475 -1.641419 -60.994261 -48.536597 35.522069 -27.251884 0.176091 12.732980 7.662644 -23.908541 -1.146754 0.594624 76.201983 6.683770 3.786204 -3.400738 1.140325 -0.017504 0.112980 -0.015893 -9.758078 -26.660352 -3.209034 42.561150 72.894325 39.376389 -25.282869 -3.855616 -4.037733 -0.192705 -0.660082 -0.090855
-31.147879 57.448342 95.050432 176.759299 -48.612387 -1.290338 -0.813216 27.667457 3.139630 -0.220017 5.005663 0.486304 -0.328037 7.890410 0.759755 -0.700613 22.623853 2.158270 0.135005 12.097062 -4.350149 2.060027 -13.205632 -8.428600 4.348548 2.233452 -2.433789 18.353248 -29.236886 -19.469412 52.061034 -64.313652 -25.399078 10.781373 7.314771 -24.353957 -11.143133 -2.060360 -4.752394 -3.890698 -31.059418 -1.602682 -60.970527 -48.581075 35.557422 -27.246037 0.174326 12.742249 7.669717 -23.907954 -1.155888 0.615246 76.201277 6.710757 3.784798 -3.398404 1.142571 -0.017702 0.112105 -0.017428 -9.757069 -26.660423 -3.210415 42.564339 72.891511 39.374767 -25.286554 -3.850860 -4.033712 -0.214090 -0.660095 -0.091495
-31.151324 57.448824 95.050921 176.740897 -48.610873 -1.280827 -0.821000 27.668327 3.143081 -0.222130 5.006930 0.487905 -0.331459 7.892098 0.762199 -0.710458 22.626445 2.165381 0.138214 12.085612 -4.414509 2.094402 -13.219994 -8.554816 4.354655 2.252452 -2.436958 18.279373 -29.249920 -19.424713 52.221977 -64.347938 -25.534102 10.786666 7.332762 -24.310514 -11.141339 -2.056380 -4.760565 -3.873705 -31.067134 -1.613658 -60.962234 -48.578696 35.561491 -27.240411 0.164982 12.750341 7.681423 -23.910242 -1.157574 0.639433 76.199137 6.736790 3.784065 -3.397123 1.144306 -0.019174 0.113915 -0.017194 -9.753103 -26.660486 -3.205166 42.573306 72.888046 39.376680 -25.293801 -3.848780 -4.026881 -0.211932 -0.660928 -0.096276
-31.154196 57.449832 95.050967 176.733326 -48.612776 -1.282128 -0.848749 27.678501 3.150738 -0.210273 5.004607 0.483369 -0.359023 7.901132 0.780428 -0.694702 22.617067 2.137227 0.134818 12.078028 -4.460528 2.131854 -13.235869 -8.685745 4.349586 2.274997 -2.424091 18.287141 -29.264650 -19.445577 52.244713 -64.383122 -25.577867 10.790085 7.348099 -24.276058 -11.139453 -2.055466 -4.764589 -3.875289 -31.063775 -1.611111 -60.957024 -48.577929 35.566922 -27.240095 0.159205 12.763380 7.683044 -23.907179 -1.155423 0.666261 76.195512 6.766005 3.780684 -3.396912 1.144950 -0.013208 0.115903 -0.017854 -9.760273 -26.653593 -3.196845 42.590075 72.883098 39.379324 -25.268373 -3.856573 -4.023717 -0.224481 -0.650311 -0.094431
-31.155512 57.451008 95.050968 176.726309 -48.614904 -1.290887 -0.842319 27.682056 3.166060 -0.227469 5.009077 0.491429 -0.360877 7.904096 0.784906 -0.694905 22.612879 2.128631 0.130872 12.070112 -4.508401 2.174394 -13.252263 -8.817739 4.346230 2.298812 -2.415010 18.292468 -29.283316 -19.464610 52.258250 -64.421962 -25.608910 10.745403 7.359623 -24.263481 -11.136076 -2.055968 -4.769240 -3.888498 -31.043628 -1.590033 -60.949795 -48.598061 35.580288 -27.243076 0.150120 12.774271 7.676138 -23.903405 -1.146339 0.679379 76.189557 6.783272 3.783652 -3.395755 1.142306 -0.013232 0.118299 -0.019857 -9.766774 -26.647061 -3.179212 42.616444 72.876774 39.402675 -25.285113 -3.865780 -4.027928 -0.192450 -0.644073 -0.089484
-31.156427 57.452438 95.050751 176.714676 -48.617928 -1.295071 -0.846715 27.690163 3.183774 -0.250561 5.017552 0.506234 -0.336961 7.896030 0.763171 -0.711847 22.620033 2.142696 0.136057 12.057808 -4.575097 2.215439 -13.271412 -8.947781 4.351169 2.317002 -2.425223 18.268823 -29.304970 -19.460052 52.315454 -64.460480 -25.661102 10.737218 7.380211 -24.244301 -11.136358 -2.056441 -4.776677 -3.885076 -31.038234 -1.579933 -60.951516 -48.612331 35.602578 -27.244566 0.147536 12.774968 7.677397 -23.899865 -1.134671 0.679443 76.185076 6.785605 3.782460 -3.394225 1.143664 -0.013324 0.118805 -0.020633 -9.770022 -26.638520 -3.162376 42.629905 72.873329 39.411356 -25.291001 -3.876241 -4.030879 -0.183489 -0.637110 -0.085231
-31.157386 57.453782 95.050601 176.699466 -48.619007 -1.292233 -0.872415 27.703717 3.198449 -0.234714 5.014948 0.495815 -0.332179 7.892407 0.757003 -0.728872 22.627068 2.159209 0.142215 12.044862 -4.642111 2.257333 -13.288864 -9.081271 4.364342 2.322321 -2.450939 18.232821 -29.310950 -19.435186 52.387041 -64.498566 -25.733794 10.733883 7.398605 -24.218175 -11.131301 -2.054031 -4.789267 -3.884042 -31.038626 -1.569507 -60.960461 -48.623620 35.629443 -27.244334 0.151703 12.779502 7.679697 -23.898915 -1.127808 0.693957 76.182005 6.799804 3.782422 -3.392097 1.142383 -0.016981 0.118156 -0.018887 -9.767819 -26.631684 -3.150177 42.618370 72.872859 39.395095 -25.287773 -3.883491 -4.032697 -0.179918 -0.631433 -0.081336
-31.158037 57.454914 95.050697 176.683844 -48.616910 -1.286705 -0.876993 27.710455 3.209557 -0.236967 5.017004 0.497133 -0.349225 7.903375 0.771195 -0.750274 22.636353 2.173552 0.160035 12.015364 -4.742666 2.296323 -13.306718 -9.210183 4.390431 2.311334 -2.506663 18.200097 -29.315315 -19.414519 52.463405 -64.536229 -25.810206 10.739671 7.415798 -24.182638 -11.109967 -2.076619 -4.822129 -3.892120 -31.021891 -1.545765 -60.991395 -48.642701 35.677493 -27.228850 0.152908 12.788895 7.682721 -23.899549 -1.124310 0.687982 76.178527 6.795251 3.785713 -3.396143 1.141446 -0.017254 0.122498 -0.018996 -9.763816 -26.628289 -3.138863 42.604492 72.871789 39.376527 -25.290047 -3.889146 -4.034863 -0.183495 -0.626748 -0.077057
